<svg width="745" height="266" viewBox="0 0 745 266" fill="none" xmlns="http://www.w3.org/2000/svg">
<path d="M0 132.838V265.676H79.7028H159.406V239.108V212.541H185.973H212.541V132.838V53.1352H185.973H159.406V26.5676V3.8147e-06H79.7028H0V132.838ZM157.192 132.838V212.541H105.163H53.1352V132.838V53.1352H105.163H157.192V132.838Z" fill="#B8B5B9"/>
<path d="M426.189 53.1352V106.27H399.621H373.053V185.973V265.676H399.621H426.189V185.973V106.27H452.756H479.324V53.1352V3.8147e-06H452.756H426.189V53.1352Z" fill="#B8B5B9"/>
<path d="M532.459 132.838V265.676H638.73H745V132.838V3.8147e-06H718.432H691.865V106.27V212.541H638.73H585.594V106.27V3.8147e-06H559.027H532.459V132.838Z" fill="#B8B5B9"/>
<path d="M266.783 79.7028V106.27H293.351H319.918V79.7028V53.1351H293.351H266.783V79.7028Z" fill="#B8B5B9"/>
<path d="M266.783 185.973V212.541H293.351H319.918V185.973V159.406H293.351H266.783V185.973Z" fill="#B8B5B9"/>
</svg>
