<?xml version="1.0" standalone="no"?>
<!DOCTYPE svg PUBLIC "-//W3C//DTD SVG 20010904//EN"
 "http://www.w3.org/TR/2001/REC-SVG-20010904/DTD/svg10.dtd">
<svg version="1.0" xmlns="http://www.w3.org/2000/svg"
 width="1000.000000pt" height="1000.000000pt" viewBox="0 0 1000.000000 1000.000000"
 preserveAspectRatio="xMidYMid meet">

<g transform="translate(0.000000,1000.000000) scale(0.100000,-0.100000)"
fill="#000000" stroke="none">
<path d="M1650 4980 l0 -1200 720 0 720 0 0 240 0 240 240 0 240 0 0 720 0
720 -240 0 -240 0 0 240 0 240 -720 0 -720 0 0 -1200z m1420 0 l0 -720 -470 0
-470 0 0 720 0 720 470 0 470 0 0 -720z"/>
<path d="M5500 5700 l0 -480 -240 0 -240 0 0 -720 0 -720 240 0 240 0 0 720 0
720 240 0 240 0 0 480 0 480 -240 0 -240 0 0 -480z"/>
<path d="M6460 4980 l0 -1200 960 0 960 0 0 1200 0 1200 -240 0 -240 0 0 -960
0 -960 -480 0 -480 0 0 960 0 960 -240 0 -240 0 0 -1200z"/>
<path d="M4060 5460 l0 -240 240 0 240 0 0 240 0 240 -240 0 -240 0 0 -240z"/>
<path d="M4060 4500 l0 -240 240 0 240 0 0 240 0 240 -240 0 -240 0 0 -240z"/>
</g>
</svg>
